<svg id="Group_243" data-name="Group 243" xmlns="http://www.w3.org/2000/svg" xmlns:xlink="http://www.w3.org/1999/xlink" width="290.96" height="56.456" viewBox="0 0 290.96 56.456">
  <defs>
    <linearGradient id="linear-gradient" x1="-0.132" y1="-0.391" x2="0.808" y2="0.784" gradientUnits="objectBoundingBox">
      <stop offset="0" stop-color="#132c7d"/>
      <stop offset="1" stop-color="#d03483"/>
    </linearGradient>
    <linearGradient id="linear-gradient-2" x1="0.124" y1="0.152" x2="0.925" y2="0.994" xlink:href="#linear-gradient"/>
  </defs>
  <g id="Group_241" data-name="Group 241" transform="translate(82.175 10.249)">
    <path id="Path_286" data-name="Path 286" d="M242.524,280.655l4.649,25.094h-3.727l-2.427-13.915-6.735,14.359-6.7-14.359-2.427,13.915h-3.727l4.65-25.094,8.205,17.266Z" transform="translate(-221.429 -275.63)" fill="#11206d"/>
    <path id="Path_287" data-name="Path 287" d="M263.8,286.37v-3.521h3.522v3.521Zm3.522,1.847v18.051H263.8V288.217Z" transform="translate(-232.103 -276.183)" fill="#11206d"/>
    <path id="Path_288" data-name="Path 288" d="M285.435,304.567a5.292,5.292,0,0,0,2.461-.581,5.637,5.637,0,0,0,1.881-1.539l2.769,2.155a9.1,9.1,0,0,1-3.077,2.537,9.037,9.037,0,0,1-7.521.248,9.145,9.145,0,0,1-2.881-1.93,9.047,9.047,0,0,1-1.949-2.873,8.787,8.787,0,0,1-.708-3.521,8.7,8.7,0,0,1,.708-3.487,9.024,9.024,0,0,1,1.949-2.872,9.159,9.159,0,0,1,2.881-1.931,8.91,8.91,0,0,1,10.6,2.786l-2.769,2.154a5.315,5.315,0,0,0-1.881-1.556,5.515,5.515,0,0,0-7.539,2.783,5.493,5.493,0,0,0,0,4.247,5.465,5.465,0,0,0,1.18,1.75,5.716,5.716,0,0,0,1.76,1.189A5.264,5.264,0,0,0,285.435,304.567Z" transform="translate(-235.281 -278.001)" fill="#11206d"/>
    <path id="Path_289" data-name="Path 289" d="M317.294,291.383a7.443,7.443,0,0,1,1.983,1.9l-1.983,1.575-.752.616a4.307,4.307,0,0,0-1.522-1.368,4.287,4.287,0,0,0-3.709-.171,4.329,4.329,0,0,0-2.291,2.291,4.153,4.153,0,0,0-.342,1.675v10.154h-3.522V290.071h3.522v1.312a7.779,7.779,0,0,1,2.017-.966,7.758,7.758,0,0,1,4.581,0A7.776,7.776,0,0,1,317.294,291.383Z" transform="translate(-242.524 -278.001)" fill="#11206d"/>
    <path id="Path_290" data-name="Path 290" d="M337.673,290.025a8.872,8.872,0,0,1,3.522.7,9,9,0,0,1,4.8,4.8,9.2,9.2,0,0,1,0,7.042,9,9,0,0,1-4.8,4.8,9.195,9.195,0,0,1-7.043,0,9,9,0,0,1-4.8-4.8,9.185,9.185,0,0,1,0-7.042,9,9,0,0,1,4.8-4.8A8.864,8.864,0,0,1,337.673,290.025Zm.017,14.53a5.4,5.4,0,0,0,2.13-.427,5.509,5.509,0,0,0,0-10.154,5.517,5.517,0,0,0-4.261,0,5.482,5.482,0,0,0-1.755,1.18,5.725,5.725,0,0,0-1.194,1.76,5.378,5.378,0,0,0,0,4.274,5.716,5.716,0,0,0,1.194,1.76,5.467,5.467,0,0,0,1.755,1.18A5.4,5.4,0,0,0,337.69,304.555Z" transform="translate(-248.443 -277.99)" fill="#11206d"/>
    <path id="Path_291" data-name="Path 291" d="M384.77,292.53q.016.343.016.685,0,.478-.034.922t-.1.89a12.1,12.1,0,0,1-1.385,4.221,12.349,12.349,0,0,1-6.41,5.658,12.37,12.37,0,0,1-9.282-.171,12.474,12.474,0,0,1-6.6-6.649,12.662,12.662,0,0,1,0-9.743,12.467,12.467,0,0,1,6.6-6.65,12.179,12.179,0,0,1,11.778,1.163,12.673,12.673,0,0,1,2.615,2.444,13.137,13.137,0,0,1,1.863,3.1h-4.2a8.815,8.815,0,0,0-3.026-3.078,7.874,7.874,0,0,0-4.188-1.163,7.972,7.972,0,0,0-3.351.718,8.684,8.684,0,0,0-2.735,1.95,9.422,9.422,0,0,0-1.845,2.871,9.412,9.412,0,0,0,0,7.043,9.428,9.428,0,0,0,1.845,2.871,8.7,8.7,0,0,0,2.735,1.949,8.175,8.175,0,0,0,6.291.171,8.444,8.444,0,0,0,2.513-1.521,9.078,9.078,0,0,0,1.88-2.309,9.391,9.391,0,0,0,1.077-2.871h-8.752v-3.214h12.65C384.741,292.064,384.757,292.3,384.77,292.53Z" transform="translate(-256.342 -275.641)" fill="#11206d"/>
    <path id="Path_292" data-name="Path 292" d="M401.087,274.028h3.522v29.847h-3.522Z" transform="translate(-266.694 -273.961)" fill="#11206d"/>
    <path id="Path_293" data-name="Path 293" d="M422.726,290.025a8.87,8.87,0,0,1,3.522.7,9.005,9.005,0,0,1,4.8,4.8,9.2,9.2,0,0,1,0,7.042,9.006,9.006,0,0,1-4.8,4.8,9.2,9.2,0,0,1-7.043,0,9.008,9.008,0,0,1-4.8-4.8,9.194,9.194,0,0,1,0-7.042,9.008,9.008,0,0,1,4.8-4.8A8.871,8.871,0,0,1,422.726,290.025Zm.018,14.53a5.4,5.4,0,0,0,2.13-.427,5.509,5.509,0,0,0,0-10.154,5.516,5.516,0,0,0-4.261,0,5.483,5.483,0,0,0-1.755,1.18,5.726,5.726,0,0,0-1.193,1.76,5.385,5.385,0,0,0,0,4.274,5.717,5.717,0,0,0,1.193,1.76,5.467,5.467,0,0,0,1.755,1.18A5.4,5.4,0,0,0,422.744,304.555Z" transform="translate(-269.872 -277.99)" fill="#11206d"/>
    <path id="Path_294" data-name="Path 294" d="M454.078,286.006a8.886,8.886,0,0,1,3.522.7,9.009,9.009,0,0,1,4.8,4.8,9.2,9.2,0,0,1,0,7.041,9.006,9.006,0,0,1-4.8,4.8,9.2,9.2,0,0,1-7.043,0,9,9,0,0,1-4.8-4.8,8.858,8.858,0,0,1-.7-3.52v-21.1h3.522l-.033,13.949A9.271,9.271,0,0,1,451.1,286.5,8.851,8.851,0,0,1,454.078,286.006Zm.017,14.53a5.478,5.478,0,0,0,3.885-1.608,5.5,5.5,0,0,0,1.177-1.76,5.58,5.58,0,0,0,0-4.274,5.466,5.466,0,0,0-2.931-2.94,5.518,5.518,0,0,0-4.261,0,5.48,5.48,0,0,0-1.755,1.18,5.787,5.787,0,0,0-1.193,1.743,5.135,5.135,0,0,0-.443,2.12v.035a5.25,5.25,0,0,0,.443,2.137,5.721,5.721,0,0,0,1.193,1.76,5.451,5.451,0,0,0,1.755,1.18A5.39,5.39,0,0,0,454.1,300.536Z" transform="translate(-277.771 -273.937)" fill="#11206d"/>
    <path id="Path_295" data-name="Path 295" d="M486.9,300.259h-6.872a5.561,5.561,0,0,0,.7,1.727,5.433,5.433,0,0,0,1.214,1.384,5.548,5.548,0,0,0,1.607.906,5.425,5.425,0,0,0,1.88.326,5.3,5.3,0,0,0,2.24-.479,5.683,5.683,0,0,0,1.83-1.334h4.136a6.072,6.072,0,0,1-.5.974q-.292.462-.633.907a9.082,9.082,0,0,1-3.077,2.512,8.675,8.675,0,0,1-4,.941,8.862,8.862,0,0,1-3.521-.7,9.012,9.012,0,0,1-4.8-4.8,9.192,9.192,0,0,1,0-7.041,9.011,9.011,0,0,1,4.8-4.8,8.882,8.882,0,0,1,3.521-.7,8.687,8.687,0,0,1,4,.941,8.918,8.918,0,0,1,3.077,2.546,8.791,8.791,0,0,1,1.949,5.539,6.316,6.316,0,0,1-.1,1.162H486.9Zm-1.471-6.667a5.335,5.335,0,0,0-2.991.863,5.567,5.567,0,0,0-2,2.282h9.983c-.115-.18-.223-.36-.325-.541a5.517,5.517,0,0,0-.325-.508,5.623,5.623,0,0,0-1.914-1.539A5.4,5.4,0,0,0,485.429,293.592Z" transform="translate(-285.67 -278.001)" fill="#11206d"/>
  </g>
  <g id="Group_242" data-name="Group 242">
    <path id="Path_296" data-name="Path 296" d="M174.351,293c-.028-.542-.069-1.116-.124-1.717H152.438l-7.68,7.679h20.164a22.352,22.352,0,0,1-2.572,6.858,21.523,21.523,0,0,1-4.488,5.507,20.207,20.207,0,0,1-6,3.638,19.55,19.55,0,0,1-15.025-.408,20.938,20.938,0,0,1-4.777-3.009l-6.109,6.109a30.451,30.451,0,0,0,7.336,4.493,29.567,29.567,0,0,0,22.167.408,29.542,29.542,0,0,0,15.309-13.513,29,29,0,0,0,3.307-10.082c.111-.711.188-1.419.244-2.127s.082-1.442.082-2.2C174.392,294.091,174.379,293.548,174.351,293Z" transform="translate(-115.198 -268.06)" fill="url(#linear-gradient)"/>
    <path id="Path_297" data-name="Path 297" d="M168.489,275.307H158.437c-.084-.168-.488-.825-.606-.977a20.253,20.253,0,0,0-2.913-3.519c0-.016-.017-.016-.017-.034l-13.757,13.757-.741-.741-12.966-12.982-.017-.016-.168.168c-.2.185-.387.371-.572.573a22.779,22.779,0,0,0-4.412,6.87,22.476,22.476,0,0,0,0,16.821,23.115,23.115,0,0,0,2.98,5.186l-.185.186-6.029,6.028a30.454,30.454,0,0,1-5.135-8.183,30.294,30.294,0,0,1,0-23.27,30.3,30.3,0,0,1,6.331-9.463c.353-.354.707-.708,1.061-1.027a29.77,29.77,0,0,1,6.314-4.395l6.314,6.3,7.257,7.258,6.9-6.921.37-.37,6.314-6.314a30.818,30.818,0,0,1,3.031,1.836,26.859,26.859,0,0,1,3.233,2.627,28.592,28.592,0,0,1,3,3.216,31.445,31.445,0,0,1,4.412,7.274C168.456,275.223,168.473,275.274,168.489,275.307Z" transform="translate(-111.577 -260.237)" fill="url(#linear-gradient-2)"/>
  </g>
</svg>
